<mxfile host="app.diagrams.net" agent="Mozilla/5.0 (Windows NT 10.0; Win64; x64) AppleWebKit/537.36 (KHTML, like Gecko) Chrome/136.0.0.0 Safari/537.36" version="27.0.6">
  <diagram name="Lapa-1" id="9_UKy8fTlPYnENp0dpBw">
    <mxGraphModel dx="1426" dy="777" grid="1" gridSize="10" guides="1" tooltips="1" connect="1" arrows="1" fold="1" page="1" pageScale="1" pageWidth="827" pageHeight="1169" math="0" shadow="0">
      <root>
        <mxCell id="0" />
        <mxCell id="1" parent="0" />
        <mxCell id="go2D2ULGRJIcTLKAe3lB-1" value="starts" style="ellipse;whiteSpace=wrap;html=1;" parent="1" vertex="1">
          <mxGeometry x="540" y="140" width="150" height="110" as="geometry" />
        </mxCell>
        <mxCell id="go2D2ULGRJIcTLKAe3lB-2" value="" style="endArrow=classic;html=1;rounded=0;exitX=0.453;exitY=1.009;exitDx=0;exitDy=0;exitPerimeter=0;entryX=0.442;entryY=-0.012;entryDx=0;entryDy=0;entryPerimeter=0;" parent="1" source="go2D2ULGRJIcTLKAe3lB-1" target="go2D2ULGRJIcTLKAe3lB-3" edge="1">
          <mxGeometry width="50" height="50" relative="1" as="geometry">
            <mxPoint x="580" y="300" as="sourcePoint" />
            <mxPoint x="608" y="320" as="targetPoint" />
          </mxGeometry>
        </mxCell>
        <mxCell id="go2D2ULGRJIcTLKAe3lB-43" style="edgeStyle=orthogonalEdgeStyle;rounded=0;orthogonalLoop=1;jettySize=auto;html=1;entryX=0.5;entryY=0;entryDx=0;entryDy=0;" parent="1" source="go2D2ULGRJIcTLKAe3lB-3" target="go2D2ULGRJIcTLKAe3lB-23" edge="1">
          <mxGeometry relative="1" as="geometry" />
        </mxCell>
        <mxCell id="go2D2ULGRJIcTLKAe3lB-3" value="input number" style="shape=document;whiteSpace=wrap;html=1;boundedLbl=1;" parent="1" vertex="1">
          <mxGeometry x="555" y="320" width="120" height="80" as="geometry" />
        </mxCell>
        <mxCell id="go2D2ULGRJIcTLKAe3lB-24" style="edgeStyle=orthogonalEdgeStyle;rounded=0;orthogonalLoop=1;jettySize=auto;html=1;exitX=0.5;exitY=0.813;exitDx=0;exitDy=0;exitPerimeter=0;" parent="1" source="go2D2ULGRJIcTLKAe3lB-23" target="go2D2ULGRJIcTLKAe3lB-25" edge="1">
          <mxGeometry relative="1" as="geometry">
            <mxPoint x="615" y="560" as="targetPoint" />
          </mxGeometry>
        </mxCell>
        <mxCell id="go2D2ULGRJIcTLKAe3lB-23" value="rand_int(1, 10)" style="shape=document;whiteSpace=wrap;html=1;boundedLbl=1;" parent="1" vertex="1">
          <mxGeometry x="555" y="430" width="120" height="80" as="geometry" />
        </mxCell>
        <mxCell id="go2D2ULGRJIcTLKAe3lB-27" style="edgeStyle=orthogonalEdgeStyle;rounded=0;orthogonalLoop=1;jettySize=auto;html=1;" parent="1" source="go2D2ULGRJIcTLKAe3lB-25" target="go2D2ULGRJIcTLKAe3lB-28" edge="1">
          <mxGeometry relative="1" as="geometry">
            <mxPoint x="680" y="630" as="targetPoint" />
            <Array as="points">
              <mxPoint x="680" y="560" />
            </Array>
          </mxGeometry>
        </mxCell>
        <mxCell id="go2D2ULGRJIcTLKAe3lB-33" value="yes" style="edgeLabel;html=1;align=center;verticalAlign=middle;resizable=0;points=[];" parent="go2D2ULGRJIcTLKAe3lB-27" vertex="1" connectable="0">
          <mxGeometry x="-0.6706" y="2" relative="1" as="geometry">
            <mxPoint as="offset" />
          </mxGeometry>
        </mxCell>
        <mxCell id="go2D2ULGRJIcTLKAe3lB-25" value="if number = rand_int(1, 10" style="rhombus;whiteSpace=wrap;html=1;" parent="1" vertex="1">
          <mxGeometry x="580" y="510" width="120" height="100" as="geometry" />
        </mxCell>
        <mxCell id="go2D2ULGRJIcTLKAe3lB-26" style="edgeStyle=orthogonalEdgeStyle;rounded=0;orthogonalLoop=1;jettySize=auto;html=1;entryX=0;entryY=0.25;entryDx=0;entryDy=0;exitX=0;exitY=0.5;exitDx=0;exitDy=0;" parent="1" source="go2D2ULGRJIcTLKAe3lB-25" target="go2D2ULGRJIcTLKAe3lB-3" edge="1">
          <mxGeometry relative="1" as="geometry">
            <mxPoint x="570" y="554" as="sourcePoint" />
            <mxPoint x="542.04" y="330" as="targetPoint" />
            <Array as="points">
              <mxPoint x="575" y="554" />
              <mxPoint x="540" y="554" />
              <mxPoint x="540" y="460" />
              <mxPoint x="542" y="460" />
              <mxPoint x="542" y="340" />
            </Array>
          </mxGeometry>
        </mxCell>
        <mxCell id="go2D2ULGRJIcTLKAe3lB-34" value="ne" style="edgeLabel;html=1;align=center;verticalAlign=middle;resizable=0;points=[];" parent="go2D2ULGRJIcTLKAe3lB-26" vertex="1" connectable="0">
          <mxGeometry x="-0.8222" y="-4" relative="1" as="geometry">
            <mxPoint as="offset" />
          </mxGeometry>
        </mxCell>
        <mxCell id="go2D2ULGRJIcTLKAe3lB-44" value="" style="edgeStyle=orthogonalEdgeStyle;rounded=0;orthogonalLoop=1;jettySize=auto;html=1;" parent="1" source="go2D2ULGRJIcTLKAe3lB-28" target="go2D2ULGRJIcTLKAe3lB-29" edge="1">
          <mxGeometry relative="1" as="geometry" />
        </mxCell>
        <mxCell id="go2D2ULGRJIcTLKAe3lB-28" value="print&quot;Hello&quot;" style="rounded=0;whiteSpace=wrap;html=1;" parent="1" vertex="1">
          <mxGeometry x="620" y="640" width="120" height="60" as="geometry" />
        </mxCell>
        <mxCell id="QVAKWR_xxO9vAshYfP8f-2" value="" style="edgeStyle=orthogonalEdgeStyle;rounded=0;orthogonalLoop=1;jettySize=auto;html=1;" edge="1" parent="1" source="go2D2ULGRJIcTLKAe3lB-29" target="QVAKWR_xxO9vAshYfP8f-1">
          <mxGeometry relative="1" as="geometry" />
        </mxCell>
        <mxCell id="go2D2ULGRJIcTLKAe3lB-29" value="print (&quot;Vai gribat spēlēt velreiz?)&quot;" style="rounded=0;whiteSpace=wrap;html=1;" parent="1" vertex="1">
          <mxGeometry x="620" y="740" width="120" height="60" as="geometry" />
        </mxCell>
        <mxCell id="go2D2ULGRJIcTLKAe3lB-31" value="end&amp;nbsp;" style="ellipse;whiteSpace=wrap;html=1;" parent="1" vertex="1">
          <mxGeometry x="620" y="920" width="120" height="80" as="geometry" />
        </mxCell>
        <mxCell id="go2D2ULGRJIcTLKAe3lB-40" style="edgeStyle=orthogonalEdgeStyle;rounded=0;orthogonalLoop=1;jettySize=auto;html=1;entryX=0.008;entryY=0.35;entryDx=0;entryDy=0;entryPerimeter=0;" parent="1" target="go2D2ULGRJIcTLKAe3lB-3" edge="1">
          <mxGeometry relative="1" as="geometry">
            <mxPoint x="620" y="740" as="sourcePoint" />
            <mxPoint x="500.03999999999996" y="360" as="targetPoint" />
            <Array as="points">
              <mxPoint x="621" y="740" />
              <mxPoint x="621" y="720" />
              <mxPoint x="470" y="720" />
              <mxPoint x="470" y="348" />
            </Array>
          </mxGeometry>
        </mxCell>
        <mxCell id="go2D2ULGRJIcTLKAe3lB-41" value="jā" style="edgeLabel;html=1;align=center;verticalAlign=middle;resizable=0;points=[];" parent="go2D2ULGRJIcTLKAe3lB-40" vertex="1" connectable="0">
          <mxGeometry x="0.3175" relative="1" as="geometry">
            <mxPoint as="offset" />
          </mxGeometry>
        </mxCell>
        <mxCell id="QVAKWR_xxO9vAshYfP8f-3" value="" style="edgeStyle=orthogonalEdgeStyle;rounded=0;orthogonalLoop=1;jettySize=auto;html=1;" edge="1" parent="1" source="QVAKWR_xxO9vAshYfP8f-1" target="go2D2ULGRJIcTLKAe3lB-31">
          <mxGeometry relative="1" as="geometry" />
        </mxCell>
        <mxCell id="QVAKWR_xxO9vAshYfP8f-1" value="&lt;div style=&quot;color: rgb(204, 204, 204); font-family: Consolas, &amp;quot;Courier New&amp;quot;, monospace; font-size: 14px; line-height: 19px; white-space: pre;&quot;&gt;&lt;div style=&quot;line-height: 19px;&quot;&gt;&lt;div style=&quot;background-color: light-dark(rgb(31, 31, 31), rgb(210, 210, 210));&quot;&gt;&lt;/div&gt;&lt;div style=&quot;&quot;&gt;&lt;span&gt;&lt;span style=&quot;background-color: rgb(0, 0, 0);&quot;&gt;&amp;nbsp; &amp;nbsp; &lt;span style=&quot;color: rgb(220, 220, 170);&quot;&gt;print&lt;/span&gt;(&lt;span style=&quot;color: rgb(86, 156, 214);&quot;&gt;f&lt;/span&gt;&lt;span style=&quot;color: rgb(206, 145, 120);&quot;&gt;&quot;programma darbojas &lt;/span&gt;&lt;span style=&quot;color: rgb(86, 156, 214);&quot;&gt;{&lt;/span&gt;&lt;span style=&quot;color: rgb(156, 220, 254);&quot;&gt;ilgums&lt;/span&gt;&lt;span style=&quot;color: rgb(86, 156, 214);&quot;&gt;:.2f}&lt;/span&gt;&lt;span style=&quot;color: rgb(206, 145, 120);&quot;&gt;) sekundes&quot;&lt;/span&gt;&lt;/span&gt;)&lt;/span&gt;&lt;/div&gt;&lt;/div&gt;&lt;/div&gt;" style="whiteSpace=wrap;html=1;rounded=0;" vertex="1" parent="1">
          <mxGeometry x="360" y="830" width="420" height="60" as="geometry" />
        </mxCell>
      </root>
    </mxGraphModel>
  </diagram>
</mxfile>
